<?xml version="1.0" encoding="utf-8"?>
<!-- Generator: Adobe Illustrator 16.0.4, SVG Export Plug-In . SVG Version: 6.00 Build 0)  -->
<!DOCTYPE svg PUBLIC "-//W3C//DTD SVG 1.1//EN" "http://www.w3.org/Graphics/SVG/1.1/DTD/svg11.dtd">
<svg version="1.1" id="Layer_1" xmlns="http://www.w3.org/2000/svg" xmlns:xlink="http://www.w3.org/1999/xlink" x="0px" y="0px"
	 width="144px" height="60.333px" viewBox="0 0 144 60.333" enable-background="new 0 0 144 60.333" xml:space="preserve">
<g>
	<path fill="#231F20" d="M30.739,47.627c0,0.02-0.005,0.038-0.015,0.054s-0.025,0.029-0.046,0.039s-0.05,0.018-0.088,0.024
		s-0.085,0.01-0.144,0.01c-0.055,0-0.102-0.003-0.139-0.01s-0.067-0.015-0.09-0.024s-0.038-0.023-0.046-0.039
		s-0.012-0.034-0.012-0.054v-6.582c0-0.02,0.004-0.038,0.012-0.054s0.023-0.03,0.046-0.042s0.053-0.02,0.09-0.024
		s0.084-0.007,0.139-0.007c0.059,0,0.106,0.002,0.144,0.007s0.067,0.013,0.088,0.024s0.037,0.025,0.046,0.042
		s0.015,0.034,0.015,0.054V47.627z"/>
	<path fill="#231F20" d="M35.461,47.627c0,0.033-0.011,0.058-0.032,0.076s-0.049,0.031-0.083,0.039s-0.081,0.012-0.139,0.012
		c-0.055,0-0.103-0.004-0.142-0.012s-0.069-0.021-0.09-0.039s-0.032-0.043-0.032-0.076v-0.493c-0.199,0.215-0.417,0.381-0.657,0.498
		s-0.487,0.176-0.745,0.176c-0.231,0-0.438-0.03-0.623-0.09s-0.339-0.146-0.466-0.259s-0.225-0.248-0.293-0.408
		s-0.103-0.338-0.103-0.537c0-0.244,0.05-0.457,0.151-0.637s0.244-0.331,0.43-0.452s0.409-0.211,0.669-0.271s0.55-0.09,0.869-0.09
		h0.703v-0.381c0-0.189-0.02-0.355-0.059-0.5s-0.103-0.266-0.19-0.364s-0.202-0.171-0.342-0.22s-0.311-0.073-0.513-0.073
		c-0.195,0-0.371,0.023-0.527,0.071s-0.293,0.1-0.41,0.159s-0.214,0.111-0.291,0.159s-0.131,0.071-0.164,0.071
		c-0.02,0-0.038-0.003-0.054-0.01s-0.03-0.019-0.042-0.037s-0.02-0.041-0.024-0.068s-0.007-0.061-0.007-0.1
		c0-0.068,0.005-0.123,0.015-0.164s0.035-0.082,0.076-0.122s0.113-0.089,0.217-0.144s0.224-0.106,0.359-0.154
		s0.281-0.085,0.437-0.115s0.312-0.044,0.469-0.044c0.303,0,0.558,0.037,0.767,0.11s0.377,0.178,0.505,0.315
		s0.221,0.305,0.276,0.505s0.083,0.427,0.083,0.681V47.627z M34.88,45.542h-0.806c-0.234,0-0.439,0.021-0.615,0.063
		s-0.322,0.104-0.439,0.186s-0.204,0.179-0.261,0.293s-0.085,0.244-0.085,0.391c0,0.254,0.081,0.457,0.242,0.608
		s0.388,0.227,0.681,0.227c0.231,0,0.447-0.06,0.647-0.178s0.413-0.302,0.637-0.549V45.542z"/>
	<path fill="#231F20" d="M40.93,45.361c0,0.377-0.041,0.717-0.122,1.018s-0.203,0.558-0.364,0.769s-0.36,0.375-0.596,0.488
		s-0.507,0.171-0.813,0.171c-0.137,0-0.263-0.014-0.378-0.042s-0.229-0.072-0.339-0.134s-0.224-0.14-0.339-0.234
		s-0.24-0.208-0.374-0.342v0.571c0,0.023-0.005,0.042-0.015,0.059s-0.026,0.029-0.049,0.039s-0.05,0.017-0.083,0.022
		s-0.073,0.007-0.122,0.007s-0.09-0.002-0.125-0.007s-0.062-0.012-0.083-0.022s-0.036-0.023-0.044-0.039s-0.012-0.036-0.012-0.059
		v-6.582c0-0.02,0.004-0.038,0.012-0.054s0.023-0.03,0.046-0.042s0.053-0.02,0.09-0.024s0.084-0.007,0.139-0.007
		c0.059,0,0.106,0.002,0.144,0.007s0.067,0.013,0.088,0.024s0.037,0.025,0.046,0.042s0.015,0.034,0.015,0.054v2.759
		c0.14-0.146,0.273-0.27,0.4-0.369s0.25-0.179,0.371-0.239s0.24-0.104,0.359-0.129s0.242-0.039,0.369-0.039
		c0.319,0,0.592,0.062,0.818,0.186s0.41,0.292,0.552,0.503s0.245,0.459,0.31,0.742S40.93,45.042,40.93,45.361z M40.319,45.454
		c0-0.248-0.02-0.487-0.059-0.718s-0.106-0.436-0.2-0.615s-0.22-0.323-0.376-0.432s-0.352-0.164-0.586-0.164
		c-0.114,0-0.227,0.016-0.339,0.049s-0.227,0.086-0.344,0.161s-0.238,0.172-0.364,0.291s-0.258,0.266-0.398,0.442v1.924
		c0.244,0.296,0.479,0.523,0.706,0.681s0.461,0.237,0.706,0.237c0.225,0,0.417-0.055,0.576-0.164s0.29-0.251,0.391-0.427
		s0.174-0.375,0.22-0.596S40.319,45.679,40.319,45.454z"/>
	<path fill="#231F20" d="M46.179,45.371c0,0.352-0.045,0.675-0.137,0.972s-0.227,0.553-0.408,0.771s-0.406,0.388-0.676,0.51
		s-0.584,0.183-0.942,0.183c-0.345,0-0.647-0.055-0.906-0.164s-0.475-0.265-0.649-0.469s-0.304-0.45-0.391-0.74
		s-0.129-0.617-0.129-0.981c0-0.352,0.045-0.675,0.134-0.972s0.225-0.553,0.405-0.769s0.406-0.385,0.676-0.505
		s0.586-0.181,0.947-0.181c0.345,0,0.647,0.054,0.906,0.161s0.475,0.263,0.647,0.466s0.303,0.45,0.391,0.74
		S46.179,45.01,46.179,45.371z M45.563,45.425c0-0.25-0.024-0.49-0.073-0.718s-0.13-0.429-0.244-0.603s-0.267-0.312-0.459-0.415
		s-0.431-0.154-0.718-0.154c-0.264,0-0.492,0.047-0.684,0.142s-0.349,0.226-0.471,0.393s-0.212,0.365-0.271,0.593
		s-0.088,0.474-0.088,0.737c0,0.254,0.024,0.496,0.073,0.725s0.13,0.431,0.244,0.603s0.267,0.309,0.459,0.41
		s0.431,0.151,0.718,0.151c0.264,0,0.492-0.047,0.684-0.142s0.349-0.225,0.471-0.391s0.212-0.363,0.271-0.591
		S45.563,45.692,45.563,45.425z"/>
	<path fill="#231F20" d="M49.934,43.433c0,0.049-0.001,0.09-0.005,0.125s-0.009,0.062-0.017,0.083s-0.018,0.038-0.029,0.049
		s-0.027,0.017-0.046,0.017c-0.029,0-0.063-0.007-0.103-0.022s-0.084-0.03-0.137-0.046s-0.109-0.032-0.171-0.046
		s-0.13-0.022-0.205-0.022c-0.088,0-0.174,0.019-0.259,0.056s-0.173,0.098-0.266,0.181s-0.19,0.193-0.293,0.33
		s-0.216,0.304-0.339,0.503v2.988c0,0.02-0.005,0.038-0.015,0.054s-0.025,0.029-0.046,0.039s-0.05,0.018-0.088,0.024
		s-0.085,0.01-0.144,0.01c-0.055,0-0.102-0.003-0.139-0.01s-0.067-0.015-0.09-0.024s-0.038-0.023-0.046-0.039
		s-0.012-0.034-0.012-0.054v-4.419c0-0.02,0.004-0.038,0.012-0.054s0.023-0.03,0.046-0.042s0.051-0.02,0.085-0.024
		s0.079-0.007,0.134-0.007s0.101,0.002,0.137,0.007s0.063,0.013,0.083,0.024s0.033,0.025,0.042,0.042s0.012,0.034,0.012,0.054v0.698
		c0.127-0.186,0.244-0.335,0.352-0.449s0.21-0.203,0.308-0.266s0.193-0.106,0.286-0.129s0.188-0.034,0.286-0.034
		c0.042,0,0.091,0.002,0.146,0.007s0.115,0.014,0.178,0.027s0.121,0.028,0.171,0.046s0.085,0.034,0.105,0.049
		s0.033,0.028,0.039,0.039s0.012,0.026,0.017,0.044s0.008,0.042,0.01,0.073S49.934,43.384,49.934,43.433z"/>
	<path fill="#231F20" d="M53.83,47.627c0,0.033-0.011,0.058-0.032,0.076s-0.049,0.031-0.083,0.039s-0.081,0.012-0.139,0.012
		c-0.055,0-0.103-0.004-0.142-0.012s-0.069-0.021-0.09-0.039s-0.032-0.043-0.032-0.076v-0.493c-0.199,0.215-0.417,0.381-0.657,0.498
		s-0.487,0.176-0.745,0.176c-0.231,0-0.438-0.03-0.623-0.09s-0.339-0.146-0.466-0.259s-0.225-0.248-0.293-0.408
		s-0.103-0.338-0.103-0.537c0-0.244,0.05-0.457,0.151-0.637s0.244-0.331,0.43-0.452s0.409-0.211,0.669-0.271s0.55-0.09,0.869-0.09
		h0.703v-0.381c0-0.189-0.02-0.355-0.059-0.5s-0.103-0.266-0.19-0.364s-0.202-0.171-0.342-0.22s-0.311-0.073-0.513-0.073
		c-0.195,0-0.371,0.023-0.527,0.071s-0.293,0.1-0.41,0.159s-0.214,0.111-0.291,0.159s-0.131,0.071-0.164,0.071
		c-0.02,0-0.038-0.003-0.054-0.01s-0.03-0.019-0.042-0.037s-0.02-0.041-0.024-0.068s-0.007-0.061-0.007-0.1
		c0-0.068,0.005-0.123,0.015-0.164s0.035-0.082,0.076-0.122s0.113-0.089,0.217-0.144s0.224-0.106,0.359-0.154
		s0.281-0.085,0.437-0.115s0.312-0.044,0.469-0.044c0.303,0,0.558,0.037,0.767,0.11s0.377,0.178,0.505,0.315
		s0.221,0.305,0.276,0.505s0.083,0.427,0.083,0.681V47.627z M53.249,45.542h-0.806c-0.234,0-0.439,0.021-0.615,0.063
		s-0.322,0.104-0.439,0.186s-0.204,0.179-0.261,0.293s-0.085,0.244-0.085,0.391c0,0.254,0.081,0.457,0.242,0.608
		s0.388,0.227,0.681,0.227c0.231,0,0.447-0.06,0.647-0.178s0.413-0.302,0.637-0.549V45.542z"/>
	<path fill="#231F20" d="M57.473,47.363c0,0.068-0.006,0.124-0.017,0.166s-0.029,0.076-0.054,0.1s-0.06,0.047-0.107,0.068
		s-0.102,0.039-0.164,0.054s-0.127,0.026-0.195,0.034s-0.135,0.012-0.2,0.012c-0.218,0-0.404-0.029-0.557-0.088
		s-0.278-0.147-0.376-0.266s-0.168-0.27-0.212-0.452s-0.066-0.397-0.066-0.645v-2.749h-0.659c-0.045,0-0.082-0.021-0.107-0.061
		s-0.039-0.102-0.039-0.183c0-0.042,0.003-0.079,0.01-0.11s0.016-0.057,0.029-0.078s0.028-0.037,0.046-0.046
		s0.038-0.015,0.061-0.015h0.659v-1.084c0-0.02,0.004-0.038,0.012-0.054s0.023-0.03,0.046-0.042s0.053-0.02,0.09-0.024
		s0.084-0.007,0.139-0.007c0.059,0,0.106,0.002,0.144,0.007s0.067,0.013,0.088,0.024s0.037,0.025,0.046,0.042
		s0.015,0.034,0.015,0.054v1.084h1.221c0.023,0,0.043,0.005,0.061,0.015s0.033,0.025,0.046,0.046s0.023,0.047,0.029,0.078
		s0.01,0.067,0.01,0.11c0,0.082-0.014,0.143-0.042,0.183s-0.062,0.061-0.105,0.061h-1.221v2.671c0,0.335,0.048,0.591,0.144,0.767
		s0.271,0.264,0.525,0.264c0.078,0,0.149-0.008,0.212-0.024s0.12-0.034,0.168-0.054s0.09-0.038,0.125-0.054s0.064-0.024,0.09-0.024
		c0.016,0,0.031,0.003,0.044,0.01s0.023,0.019,0.032,0.037s0.015,0.041,0.02,0.068S57.473,47.321,57.473,47.363z"/>
	<path fill="#231F20" d="M62.443,45.371c0,0.352-0.045,0.675-0.137,0.972s-0.227,0.553-0.408,0.771s-0.406,0.388-0.676,0.51
		s-0.584,0.183-0.942,0.183c-0.345,0-0.647-0.055-0.906-0.164s-0.475-0.265-0.649-0.469s-0.304-0.45-0.391-0.74
		s-0.129-0.617-0.129-0.981c0-0.352,0.045-0.675,0.134-0.972s0.225-0.553,0.405-0.769s0.406-0.385,0.676-0.505
		s0.586-0.181,0.947-0.181c0.345,0,0.647,0.054,0.906,0.161s0.475,0.263,0.647,0.466s0.303,0.45,0.391,0.74
		S62.443,45.01,62.443,45.371z M61.828,45.425c0-0.25-0.024-0.49-0.073-0.718s-0.13-0.429-0.244-0.603s-0.267-0.312-0.459-0.415
		s-0.431-0.154-0.718-0.154c-0.264,0-0.492,0.047-0.684,0.142s-0.349,0.226-0.471,0.393s-0.212,0.365-0.271,0.593
		S58.82,45.137,58.82,45.4c0,0.254,0.024,0.496,0.073,0.725s0.13,0.431,0.244,0.603s0.267,0.309,0.459,0.41s0.431,0.151,0.718,0.151
		c0.264,0,0.492-0.047,0.684-0.142s0.349-0.225,0.471-0.391s0.212-0.363,0.271-0.591S61.828,45.692,61.828,45.425z"/>
	<path fill="#231F20" d="M66.198,43.433c0,0.049-0.001,0.09-0.005,0.125s-0.009,0.062-0.017,0.083s-0.018,0.038-0.029,0.049
		s-0.027,0.017-0.046,0.017c-0.029,0-0.063-0.007-0.103-0.022s-0.084-0.03-0.137-0.046s-0.109-0.032-0.171-0.046
		s-0.13-0.022-0.205-0.022c-0.088,0-0.174,0.019-0.259,0.056s-0.173,0.098-0.266,0.181s-0.19,0.193-0.293,0.33
		s-0.216,0.304-0.339,0.503v2.988c0,0.02-0.005,0.038-0.015,0.054s-0.025,0.029-0.046,0.039s-0.05,0.018-0.088,0.024
		s-0.085,0.01-0.144,0.01c-0.055,0-0.102-0.003-0.139-0.01s-0.067-0.015-0.09-0.024s-0.038-0.023-0.046-0.039
		s-0.012-0.034-0.012-0.054v-4.419c0-0.02,0.004-0.038,0.012-0.054s0.023-0.03,0.046-0.042s0.051-0.02,0.085-0.024
		s0.079-0.007,0.134-0.007s0.101,0.002,0.137,0.007s0.063,0.013,0.083,0.024s0.033,0.025,0.042,0.042s0.012,0.034,0.012,0.054v0.698
		c0.127-0.186,0.244-0.335,0.352-0.449s0.21-0.203,0.308-0.266s0.193-0.106,0.286-0.129s0.188-0.034,0.286-0.034
		c0.042,0,0.091,0.002,0.146,0.007s0.115,0.014,0.178,0.027s0.121,0.028,0.171,0.046s0.085,0.034,0.105,0.049
		s0.033,0.028,0.039,0.039s0.012,0.026,0.017,0.044s0.008,0.042,0.01,0.073S66.198,43.384,66.198,43.433z"/>
	<path fill="#231F20" d="M68.962,47.725l-0.615,1.655c-0.016,0.036-0.05,0.066-0.103,0.09s-0.135,0.037-0.249,0.037
		c-0.059,0-0.107-0.003-0.146-0.01s-0.069-0.019-0.09-0.037s-0.033-0.041-0.037-0.068s0.003-0.061,0.02-0.1l0.625-1.567
		c-0.026-0.01-0.049-0.026-0.068-0.049s-0.033-0.045-0.039-0.068l-1.606-4.312c-0.016-0.045-0.024-0.082-0.024-0.11
		s0.009-0.05,0.027-0.066s0.047-0.027,0.088-0.032s0.095-0.007,0.164-0.007c0.072,0,0.128,0.002,0.171,0.007s0.076,0.012,0.1,0.022
		s0.042,0.023,0.054,0.039s0.022,0.036,0.032,0.059l1.382,3.857h0.02l1.357-3.857c0.016-0.045,0.038-0.076,0.066-0.09
		s0.064-0.024,0.11-0.029s0.101-0.007,0.166-0.007c0.062,0,0.113,0.003,0.154,0.01s0.071,0.018,0.09,0.034s0.029,0.038,0.029,0.066
		s-0.008,0.062-0.024,0.105L68.962,47.725z"/>
	<path fill="#231F20" d="M77.824,45.371c0,0.352-0.045,0.675-0.137,0.972s-0.227,0.553-0.408,0.771s-0.406,0.388-0.676,0.51
		s-0.584,0.183-0.942,0.183c-0.345,0-0.647-0.055-0.906-0.164s-0.475-0.265-0.649-0.469s-0.304-0.45-0.391-0.74
		s-0.129-0.617-0.129-0.981c0-0.352,0.045-0.675,0.134-0.972s0.225-0.553,0.405-0.769s0.406-0.385,0.676-0.505
		s0.586-0.181,0.947-0.181c0.345,0,0.647,0.054,0.906,0.161s0.475,0.263,0.647,0.466s0.303,0.45,0.391,0.74
		S77.824,45.01,77.824,45.371z M77.209,45.425c0-0.25-0.024-0.49-0.073-0.718s-0.13-0.429-0.244-0.603s-0.267-0.312-0.459-0.415
		s-0.431-0.154-0.718-0.154c-0.264,0-0.492,0.047-0.684,0.142s-0.349,0.226-0.471,0.393s-0.212,0.365-0.271,0.593
		s-0.088,0.474-0.088,0.737c0,0.254,0.024,0.496,0.073,0.725s0.13,0.431,0.244,0.603s0.267,0.309,0.459,0.41
		s0.431,0.151,0.718,0.151c0.264,0,0.492-0.047,0.684-0.142s0.349-0.225,0.471-0.391s0.212-0.363,0.271-0.591
		S77.209,45.692,77.209,45.425z"/>
	<path fill="#231F20" d="M81.418,41.323c0,0.045-0.002,0.082-0.007,0.11s-0.011,0.05-0.02,0.066s-0.018,0.028-0.029,0.034
		s-0.025,0.01-0.042,0.01c-0.026,0-0.057-0.008-0.093-0.024s-0.081-0.034-0.134-0.054s-0.117-0.038-0.19-0.054
		s-0.159-0.024-0.256-0.024c-0.137,0-0.252,0.022-0.347,0.066s-0.171,0.114-0.229,0.21s-0.1,0.22-0.125,0.371
		s-0.037,0.334-0.037,0.549v0.522h1.084c0.023,0,0.042,0.005,0.059,0.015s0.031,0.025,0.044,0.046s0.023,0.047,0.029,0.078
		s0.01,0.067,0.01,0.11c0,0.082-0.013,0.143-0.039,0.183s-0.06,0.061-0.103,0.061h-1.084v4.028c0,0.02-0.005,0.038-0.015,0.054
		s-0.025,0.029-0.046,0.039s-0.051,0.018-0.09,0.024s-0.086,0.01-0.142,0.01s-0.102-0.003-0.139-0.01s-0.067-0.015-0.09-0.024
		s-0.038-0.023-0.046-0.039s-0.012-0.034-0.012-0.054v-4.028h-0.664c-0.045,0-0.081-0.021-0.105-0.061s-0.037-0.102-0.037-0.183
		c0-0.042,0.003-0.079,0.01-0.11s0.016-0.057,0.027-0.078s0.026-0.037,0.044-0.046s0.038-0.015,0.061-0.015h0.664v-0.503
		c0-0.309,0.028-0.573,0.083-0.791s0.139-0.396,0.251-0.532s0.253-0.236,0.422-0.298s0.366-0.093,0.591-0.093
		c0.111,0,0.218,0.011,0.322,0.032s0.183,0.044,0.237,0.068s0.089,0.045,0.107,0.063s0.033,0.04,0.044,0.066s0.02,0.056,0.024,0.09
		S81.418,41.281,81.418,41.323z"/>
	<path fill="#231F20" d="M87.941,47.627c0,0.02-0.004,0.038-0.012,0.054s-0.023,0.029-0.046,0.039s-0.052,0.018-0.088,0.024
		s-0.08,0.01-0.132,0.01c-0.059,0-0.106-0.003-0.142-0.01s-0.063-0.015-0.083-0.024s-0.033-0.023-0.042-0.039
		s-0.012-0.034-0.012-0.054v-0.625c-0.254,0.283-0.502,0.488-0.745,0.615s-0.484,0.19-0.725,0.19c-0.29,0-0.534-0.049-0.732-0.146
		s-0.359-0.23-0.481-0.398s-0.21-0.362-0.264-0.583s-0.081-0.488-0.081-0.801v-2.671c0-0.02,0.004-0.038,0.012-0.054
		s0.023-0.03,0.046-0.042s0.053-0.02,0.09-0.024s0.084-0.007,0.139-0.007c0.059,0,0.106,0.002,0.144,0.007s0.067,0.013,0.088,0.024
		s0.037,0.025,0.046,0.042s0.015,0.034,0.015,0.054v2.617c0,0.273,0.021,0.497,0.063,0.669s0.106,0.32,0.19,0.442
		s0.193,0.216,0.325,0.283s0.286,0.1,0.461,0.1c0.225,0,0.448-0.08,0.671-0.239s0.46-0.394,0.71-0.703v-3.169
		c0-0.02,0.004-0.038,0.012-0.054s0.023-0.03,0.046-0.042s0.053-0.02,0.09-0.024s0.085-0.007,0.144-0.007
		c0.055,0,0.102,0.002,0.139,0.007s0.067,0.013,0.088,0.024s0.037,0.025,0.046,0.042s0.015,0.034,0.015,0.054V47.627z"/>
	<path fill="#231F20" d="M90.153,47.627c0,0.02-0.005,0.038-0.015,0.054s-0.025,0.029-0.046,0.039s-0.05,0.018-0.088,0.024
		s-0.085,0.01-0.144,0.01c-0.055,0-0.102-0.003-0.139-0.01s-0.067-0.015-0.09-0.024s-0.038-0.023-0.046-0.039
		s-0.012-0.034-0.012-0.054v-6.582c0-0.02,0.004-0.038,0.012-0.054s0.023-0.03,0.046-0.042s0.053-0.02,0.09-0.024
		s0.084-0.007,0.139-0.007c0.059,0,0.106,0.002,0.144,0.007s0.067,0.013,0.088,0.024s0.037,0.025,0.046,0.042
		s0.015,0.034,0.015,0.054V47.627z"/>
	<path fill="#231F20" d="M93.908,47.363c0,0.068-0.006,0.124-0.017,0.166s-0.029,0.076-0.054,0.1s-0.06,0.047-0.107,0.068
		s-0.102,0.039-0.164,0.054s-0.127,0.026-0.195,0.034s-0.135,0.012-0.2,0.012c-0.218,0-0.404-0.029-0.557-0.088
		s-0.278-0.147-0.376-0.266s-0.168-0.27-0.212-0.452s-0.066-0.397-0.066-0.645v-2.749h-0.659c-0.045,0-0.082-0.021-0.107-0.061
		s-0.039-0.102-0.039-0.183c0-0.042,0.003-0.079,0.01-0.11s0.016-0.057,0.029-0.078s0.028-0.037,0.046-0.046
		s0.038-0.015,0.061-0.015h0.659v-1.084c0-0.02,0.004-0.038,0.012-0.054s0.023-0.03,0.046-0.042s0.053-0.02,0.09-0.024
		s0.084-0.007,0.139-0.007c0.059,0,0.106,0.002,0.144,0.007s0.067,0.013,0.088,0.024s0.037,0.025,0.046,0.042
		s0.015,0.034,0.015,0.054v1.084h1.221c0.023,0,0.043,0.005,0.061,0.015s0.033,0.025,0.046,0.046s0.023,0.047,0.029,0.078
		s0.01,0.067,0.01,0.11c0,0.082-0.014,0.143-0.042,0.183s-0.062,0.061-0.105,0.061h-1.221v2.671c0,0.335,0.048,0.591,0.144,0.767
		S92.956,47.3,93.21,47.3c0.078,0,0.149-0.008,0.212-0.024s0.12-0.034,0.168-0.054s0.09-0.038,0.125-0.054s0.064-0.024,0.09-0.024
		c0.016,0,0.031,0.003,0.044,0.01s0.023,0.019,0.032,0.037s0.015,0.041,0.02,0.068S93.908,47.321,93.908,47.363z"/>
	<path fill="#231F20" d="M97.517,43.433c0,0.049-0.001,0.09-0.005,0.125s-0.009,0.062-0.017,0.083s-0.018,0.038-0.029,0.049
		s-0.027,0.017-0.046,0.017c-0.029,0-0.063-0.007-0.103-0.022s-0.084-0.03-0.137-0.046s-0.109-0.032-0.171-0.046
		s-0.13-0.022-0.205-0.022c-0.088,0-0.174,0.019-0.259,0.056s-0.173,0.098-0.266,0.181s-0.19,0.193-0.293,0.33
		s-0.216,0.304-0.339,0.503v2.988c0,0.02-0.005,0.038-0.015,0.054s-0.025,0.029-0.046,0.039s-0.05,0.018-0.088,0.024
		s-0.085,0.01-0.144,0.01c-0.055,0-0.102-0.003-0.139-0.01s-0.067-0.015-0.09-0.024s-0.038-0.023-0.046-0.039
		s-0.012-0.034-0.012-0.054v-4.419c0-0.02,0.004-0.038,0.012-0.054s0.023-0.03,0.046-0.042s0.051-0.02,0.085-0.024
		s0.079-0.007,0.134-0.007s0.101,0.002,0.137,0.007s0.063,0.013,0.083,0.024s0.033,0.025,0.042,0.042s0.012,0.034,0.012,0.054v0.698
		c0.127-0.186,0.244-0.335,0.352-0.449s0.21-0.203,0.308-0.266s0.193-0.106,0.286-0.129s0.188-0.034,0.286-0.034
		c0.042,0,0.091,0.002,0.146,0.007s0.115,0.014,0.178,0.027s0.121,0.028,0.171,0.046s0.085,0.034,0.105,0.049
		s0.033,0.028,0.039,0.039s0.012,0.026,0.017,0.044s0.008,0.042,0.01,0.073S97.517,43.384,97.517,43.433z"/>
	<path fill="#231F20" d="M101.413,47.627c0,0.033-0.011,0.058-0.032,0.076s-0.049,0.031-0.083,0.039s-0.081,0.012-0.139,0.012
		c-0.055,0-0.103-0.004-0.142-0.012s-0.069-0.021-0.09-0.039s-0.032-0.043-0.032-0.076v-0.493c-0.199,0.215-0.417,0.381-0.657,0.498
		s-0.487,0.176-0.745,0.176c-0.231,0-0.438-0.03-0.623-0.09s-0.339-0.146-0.466-0.259s-0.225-0.248-0.293-0.408
		s-0.103-0.338-0.103-0.537c0-0.244,0.05-0.457,0.151-0.637s0.244-0.331,0.43-0.452S99,45.214,99.26,45.154s0.55-0.09,0.869-0.09
		h0.703v-0.381c0-0.189-0.02-0.355-0.059-0.5s-0.103-0.266-0.19-0.364s-0.202-0.171-0.342-0.22s-0.311-0.073-0.513-0.073
		c-0.195,0-0.371,0.023-0.527,0.071s-0.293,0.1-0.41,0.159s-0.214,0.111-0.291,0.159s-0.131,0.071-0.164,0.071
		c-0.02,0-0.038-0.003-0.054-0.01s-0.03-0.019-0.042-0.037s-0.02-0.041-0.024-0.068s-0.007-0.061-0.007-0.1
		c0-0.068,0.005-0.123,0.015-0.164s0.035-0.082,0.076-0.122s0.113-0.089,0.217-0.144s0.224-0.106,0.359-0.154
		s0.281-0.085,0.437-0.115s0.312-0.044,0.469-0.044c0.303,0,0.558,0.037,0.767,0.11s0.377,0.178,0.505,0.315
		s0.221,0.305,0.276,0.505s0.083,0.427,0.083,0.681V47.627z M100.832,45.542h-0.806c-0.234,0-0.439,0.021-0.615,0.063
		s-0.322,0.104-0.439,0.186s-0.204,0.179-0.261,0.293s-0.085,0.244-0.085,0.391c0,0.254,0.081,0.457,0.242,0.608
		s0.388,0.227,0.681,0.227c0.231,0,0.447-0.06,0.647-0.178s0.413-0.302,0.637-0.549V45.542z"/>
	<path fill="#231F20" d="M105.256,41.323c0,0.045-0.002,0.082-0.007,0.11s-0.011,0.05-0.02,0.066s-0.018,0.028-0.029,0.034
		s-0.025,0.01-0.042,0.01c-0.026,0-0.057-0.008-0.093-0.024s-0.081-0.034-0.134-0.054s-0.117-0.038-0.19-0.054
		s-0.159-0.024-0.256-0.024c-0.137,0-0.252,0.022-0.347,0.066s-0.171,0.114-0.229,0.21s-0.1,0.22-0.125,0.371
		s-0.037,0.334-0.037,0.549v0.522h1.084c0.023,0,0.042,0.005,0.059,0.015s0.031,0.025,0.044,0.046s0.023,0.047,0.029,0.078
		s0.01,0.067,0.01,0.11c0,0.082-0.013,0.143-0.039,0.183s-0.06,0.061-0.103,0.061h-1.084v4.028c0,0.02-0.005,0.038-0.015,0.054
		s-0.025,0.029-0.046,0.039s-0.051,0.018-0.09,0.024s-0.086,0.01-0.142,0.01s-0.102-0.003-0.139-0.01s-0.067-0.015-0.09-0.024
		s-0.038-0.023-0.046-0.039s-0.012-0.034-0.012-0.054v-4.028h-0.664c-0.045,0-0.081-0.021-0.105-0.061s-0.037-0.102-0.037-0.183
		c0-0.042,0.003-0.079,0.01-0.11s0.016-0.057,0.027-0.078s0.026-0.037,0.044-0.046s0.038-0.015,0.061-0.015h0.664v-0.503
		c0-0.309,0.028-0.573,0.083-0.791s0.139-0.396,0.251-0.532s0.253-0.236,0.422-0.298s0.366-0.093,0.591-0.093
		c0.111,0,0.218,0.011,0.322,0.032s0.183,0.044,0.237,0.068s0.089,0.045,0.107,0.063s0.033,0.04,0.044,0.066s0.02,0.056,0.024,0.09
		S105.256,41.281,105.256,41.323z"/>
	<path fill="#231F20" d="M108.835,47.627c0,0.033-0.011,0.058-0.032,0.076s-0.049,0.031-0.083,0.039s-0.081,0.012-0.139,0.012
		c-0.055,0-0.103-0.004-0.142-0.012s-0.069-0.021-0.09-0.039s-0.032-0.043-0.032-0.076v-0.493c-0.199,0.215-0.417,0.381-0.657,0.498
		s-0.487,0.176-0.745,0.176c-0.231,0-0.438-0.03-0.623-0.09s-0.339-0.146-0.466-0.259s-0.225-0.248-0.293-0.408
		s-0.103-0.338-0.103-0.537c0-0.244,0.05-0.457,0.151-0.637s0.244-0.331,0.43-0.452s0.409-0.211,0.669-0.271s0.55-0.09,0.869-0.09
		h0.703v-0.381c0-0.189-0.02-0.355-0.059-0.5s-0.103-0.266-0.19-0.364s-0.202-0.171-0.342-0.22s-0.311-0.073-0.513-0.073
		c-0.195,0-0.371,0.023-0.527,0.071s-0.293,0.1-0.41,0.159s-0.214,0.111-0.291,0.159s-0.131,0.071-0.164,0.071
		c-0.02,0-0.038-0.003-0.054-0.01s-0.03-0.019-0.042-0.037s-0.02-0.041-0.024-0.068s-0.007-0.061-0.007-0.1
		c0-0.068,0.005-0.123,0.015-0.164s0.035-0.082,0.076-0.122s0.113-0.089,0.217-0.144s0.224-0.106,0.359-0.154
		s0.281-0.085,0.437-0.115s0.312-0.044,0.469-0.044c0.303,0,0.558,0.037,0.767,0.11s0.377,0.178,0.505,0.315
		s0.221,0.305,0.276,0.505s0.083,0.427,0.083,0.681V47.627z M108.254,45.542h-0.806c-0.234,0-0.439,0.021-0.615,0.063
		s-0.322,0.104-0.439,0.186s-0.204,0.179-0.261,0.293s-0.085,0.244-0.085,0.391c0,0.254,0.081,0.457,0.242,0.608
		s0.388,0.227,0.681,0.227c0.231,0,0.447-0.06,0.647-0.178s0.413-0.302,0.637-0.549V45.542z"/>
	<path fill="#231F20" d="M113.044,46.45c0,0.211-0.039,0.401-0.117,0.569s-0.189,0.31-0.334,0.427s-0.318,0.207-0.52,0.269
		s-0.425,0.093-0.669,0.093c-0.153,0-0.298-0.012-0.435-0.037s-0.26-0.055-0.371-0.093s-0.204-0.077-0.281-0.12
		s-0.133-0.08-0.168-0.112s-0.062-0.073-0.078-0.122s-0.024-0.114-0.024-0.195c0-0.042,0.003-0.08,0.01-0.112
		s0.015-0.06,0.024-0.083s0.023-0.04,0.039-0.051s0.034-0.017,0.054-0.017c0.036,0,0.088,0.023,0.156,0.068s0.154,0.095,0.256,0.149
		s0.225,0.104,0.366,0.149s0.305,0.068,0.491,0.068c0.15,0,0.287-0.016,0.41-0.049s0.231-0.082,0.322-0.146s0.162-0.149,0.212-0.251
		s0.076-0.222,0.076-0.359s-0.033-0.252-0.098-0.347s-0.15-0.177-0.256-0.247s-0.226-0.132-0.361-0.186s-0.273-0.109-0.415-0.166
		s-0.28-0.12-0.415-0.188s-0.255-0.151-0.361-0.249s-0.191-0.215-0.256-0.352s-0.098-0.301-0.098-0.493
		c0-0.153,0.029-0.304,0.088-0.452s0.149-0.281,0.271-0.398s0.278-0.211,0.469-0.283s0.416-0.107,0.676-0.107
		c0.111,0,0.221,0.009,0.33,0.027s0.208,0.042,0.298,0.071s0.167,0.061,0.232,0.095s0.115,0.064,0.149,0.09s0.057,0.048,0.068,0.066
		s0.02,0.037,0.024,0.056s0.009,0.043,0.012,0.071s0.005,0.061,0.005,0.1s-0.002,0.074-0.007,0.105s-0.012,0.058-0.022,0.081
		s-0.022,0.04-0.037,0.051s-0.032,0.017-0.051,0.017c-0.026,0-0.065-0.018-0.117-0.054s-0.121-0.075-0.205-0.117
		s-0.186-0.082-0.303-0.117s-0.252-0.054-0.405-0.054s-0.287,0.018-0.403,0.054s-0.211,0.086-0.286,0.151s-0.131,0.142-0.168,0.229
		s-0.056,0.184-0.056,0.288c0,0.143,0.033,0.264,0.098,0.361s0.151,0.182,0.259,0.254s0.229,0.135,0.366,0.19
		s0.276,0.111,0.417,0.166s0.281,0.116,0.417,0.183s0.259,0.147,0.366,0.242s0.194,0.208,0.259,0.339S113.044,46.265,113.044,46.45z
		"/>
	<path fill="#231F20" d="M116.33,47.363c0,0.068-0.006,0.124-0.017,0.166s-0.029,0.076-0.054,0.1s-0.06,0.047-0.107,0.068
		s-0.102,0.039-0.164,0.054s-0.127,0.026-0.195,0.034s-0.135,0.012-0.2,0.012c-0.218,0-0.404-0.029-0.557-0.088
		s-0.278-0.147-0.376-0.266s-0.168-0.27-0.212-0.452s-0.066-0.397-0.066-0.645v-2.749h-0.659c-0.045,0-0.082-0.021-0.107-0.061
		s-0.039-0.102-0.039-0.183c0-0.042,0.003-0.079,0.01-0.11s0.016-0.057,0.029-0.078s0.028-0.037,0.046-0.046
		s0.038-0.015,0.061-0.015h0.659v-1.084c0-0.02,0.004-0.038,0.012-0.054s0.023-0.03,0.046-0.042s0.053-0.02,0.09-0.024
		s0.084-0.007,0.139-0.007c0.059,0,0.106,0.002,0.144,0.007s0.067,0.013,0.088,0.024s0.037,0.025,0.046,0.042
		s0.015,0.034,0.015,0.054v1.084h1.221c0.023,0,0.043,0.005,0.061,0.015s0.033,0.025,0.046,0.046s0.023,0.047,0.029,0.078
		s0.01,0.067,0.01,0.11c0,0.082-0.014,0.143-0.042,0.183s-0.062,0.061-0.105,0.061h-1.221v2.671c0,0.335,0.048,0.591,0.144,0.767
		s0.271,0.264,0.525,0.264c0.078,0,0.149-0.008,0.212-0.024s0.12-0.034,0.168-0.054s0.09-0.038,0.125-0.054s0.064-0.024,0.09-0.024
		c0.016,0,0.031,0.003,0.044,0.01s0.023,0.019,0.032,0.037s0.015,0.041,0.02,0.068S116.33,47.321,116.33,47.363z"/>
	<path fill="#231F20" d="M45.773,54.352c0,0.377-0.042,0.718-0.125,1.021s-0.205,0.56-0.366,0.771s-0.36,0.375-0.598,0.491
		s-0.509,0.173-0.815,0.173c-0.13,0-0.252-0.014-0.366-0.042s-0.226-0.071-0.334-0.129s-0.218-0.132-0.327-0.22
		s-0.224-0.194-0.344-0.317v2.28c0,0.02-0.005,0.038-0.015,0.054s-0.025,0.03-0.046,0.042s-0.05,0.02-0.088,0.024
		s-0.085,0.007-0.144,0.007c-0.055,0-0.102-0.002-0.139-0.007s-0.067-0.013-0.09-0.024s-0.038-0.025-0.046-0.042
		s-0.012-0.034-0.012-0.054v-6.172c0-0.023,0.004-0.042,0.012-0.059s0.023-0.029,0.044-0.039s0.049-0.017,0.083-0.022
		s0.076-0.007,0.125-0.007s0.089,0.002,0.122,0.007s0.06,0.012,0.083,0.022s0.039,0.023,0.049,0.039s0.015,0.036,0.015,0.059v0.64
		c0.137-0.14,0.267-0.261,0.391-0.364s0.248-0.188,0.371-0.256s0.25-0.119,0.381-0.151s0.269-0.049,0.415-0.049
		c0.319,0,0.591,0.061,0.815,0.183s0.408,0.289,0.549,0.5s0.244,0.458,0.308,0.74S45.773,54.033,45.773,54.352z M45.163,54.444
		c0-0.248-0.02-0.486-0.059-0.715S45,53.295,44.907,53.116s-0.216-0.322-0.371-0.43s-0.349-0.161-0.583-0.161
		c-0.117,0-0.232,0.016-0.344,0.049s-0.227,0.086-0.344,0.161s-0.239,0.172-0.366,0.291s-0.26,0.266-0.4,0.442v1.924
		c0.244,0.296,0.478,0.523,0.701,0.681s0.457,0.237,0.701,0.237c0.225,0,0.417-0.055,0.579-0.164s0.292-0.252,0.393-0.43
		s0.175-0.377,0.222-0.601S45.163,54.669,45.163,54.444z"/>
	<path fill="#231F20" d="M50.695,56.627c0,0.02-0.005,0.038-0.015,0.054s-0.025,0.029-0.046,0.039s-0.05,0.018-0.088,0.024
		s-0.084,0.01-0.139,0.01c-0.059,0-0.106-0.003-0.144-0.01s-0.067-0.015-0.088-0.024s-0.037-0.023-0.046-0.039
		s-0.015-0.034-0.015-0.054v-2.622c0-0.273-0.021-0.496-0.063-0.667s-0.106-0.317-0.19-0.439s-0.193-0.216-0.325-0.283
		s-0.286-0.1-0.461-0.1c-0.225,0-0.449,0.08-0.674,0.239s-0.46,0.394-0.708,0.703v3.169c0,0.02-0.005,0.038-0.015,0.054
		s-0.025,0.029-0.046,0.039s-0.05,0.018-0.088,0.024s-0.085,0.01-0.144,0.01c-0.055,0-0.102-0.003-0.139-0.01
		s-0.067-0.015-0.09-0.024s-0.038-0.023-0.046-0.039s-0.012-0.034-0.012-0.054v-6.582c0-0.02,0.004-0.038,0.012-0.054
		s0.023-0.03,0.046-0.042s0.053-0.02,0.09-0.024s0.084-0.007,0.139-0.007c0.059,0,0.106,0.002,0.144,0.007s0.067,0.013,0.088,0.024
		s0.037,0.025,0.046,0.042s0.015,0.034,0.015,0.054v2.759c0.241-0.267,0.482-0.463,0.723-0.588s0.482-0.188,0.723-0.188
		c0.29,0,0.534,0.049,0.732,0.146s0.359,0.229,0.481,0.396s0.21,0.36,0.264,0.581s0.081,0.488,0.081,0.801V56.627z"/>
	<path fill="#231F20" d="M53.835,56.725L53.22,58.38c-0.016,0.036-0.05,0.066-0.103,0.09s-0.135,0.037-0.249,0.037
		c-0.059,0-0.107-0.003-0.146-0.01s-0.069-0.019-0.09-0.037s-0.033-0.041-0.037-0.068s0.003-0.061,0.02-0.1l0.625-1.567
		c-0.026-0.01-0.049-0.026-0.068-0.049s-0.033-0.045-0.039-0.068l-1.606-4.312c-0.016-0.045-0.024-0.082-0.024-0.11
		s0.009-0.05,0.027-0.066s0.047-0.027,0.088-0.032s0.095-0.007,0.164-0.007c0.072,0,0.128,0.002,0.171,0.007s0.076,0.012,0.1,0.022
		s0.042,0.023,0.054,0.039s0.022,0.036,0.032,0.059l1.382,3.857h0.02l1.357-3.857c0.016-0.045,0.038-0.076,0.066-0.09
		s0.064-0.024,0.11-0.029s0.101-0.007,0.166-0.007c0.062,0,0.113,0.003,0.154,0.01s0.071,0.018,0.09,0.034s0.029,0.038,0.029,0.066
		s-0.008,0.062-0.024,0.105L53.835,56.725z"/>
	<path fill="#231F20" d="M59.016,55.45c0,0.211-0.039,0.401-0.117,0.569s-0.189,0.31-0.334,0.427s-0.318,0.207-0.52,0.269
		s-0.425,0.093-0.669,0.093c-0.153,0-0.298-0.012-0.435-0.037s-0.26-0.055-0.371-0.093s-0.204-0.077-0.281-0.12
		s-0.133-0.08-0.168-0.112s-0.062-0.073-0.078-0.122s-0.024-0.114-0.024-0.195c0-0.042,0.003-0.08,0.01-0.112
		s0.015-0.06,0.024-0.083s0.023-0.04,0.039-0.051s0.034-0.017,0.054-0.017c0.036,0,0.088,0.023,0.156,0.068s0.154,0.095,0.256,0.149
		s0.225,0.104,0.366,0.149s0.305,0.068,0.491,0.068c0.15,0,0.287-0.016,0.41-0.049s0.231-0.082,0.322-0.146s0.162-0.149,0.212-0.251
		s0.076-0.222,0.076-0.359s-0.033-0.252-0.098-0.347s-0.15-0.177-0.256-0.247s-0.226-0.132-0.361-0.186s-0.273-0.109-0.415-0.166
		s-0.28-0.12-0.415-0.188s-0.255-0.151-0.361-0.249s-0.191-0.215-0.256-0.352s-0.098-0.301-0.098-0.493
		c0-0.153,0.029-0.304,0.088-0.452s0.149-0.281,0.271-0.398s0.278-0.211,0.469-0.283s0.416-0.107,0.676-0.107
		c0.111,0,0.221,0.009,0.33,0.027s0.208,0.042,0.298,0.071s0.167,0.061,0.232,0.095s0.115,0.064,0.149,0.09s0.057,0.048,0.068,0.066
		s0.02,0.037,0.024,0.056s0.009,0.043,0.012,0.071s0.005,0.061,0.005,0.1s-0.002,0.074-0.007,0.105s-0.012,0.058-0.022,0.081
		s-0.022,0.04-0.037,0.051s-0.032,0.017-0.051,0.017c-0.026,0-0.065-0.018-0.117-0.054s-0.121-0.075-0.205-0.117
		s-0.186-0.082-0.303-0.117s-0.252-0.054-0.405-0.054s-0.287,0.018-0.403,0.054s-0.211,0.086-0.286,0.151s-0.131,0.142-0.168,0.229
		s-0.056,0.184-0.056,0.288c0,0.143,0.033,0.264,0.098,0.361s0.151,0.182,0.259,0.254s0.229,0.135,0.366,0.19
		s0.276,0.111,0.417,0.166s0.281,0.116,0.417,0.183s0.259,0.147,0.366,0.242s0.194,0.208,0.259,0.339S59.016,55.265,59.016,55.45z"
		/>
	<path fill="#231F20" d="M60.954,50.719c0,0.156-0.028,0.262-0.083,0.317s-0.156,0.083-0.303,0.083
		c-0.143,0-0.242-0.027-0.295-0.081s-0.081-0.159-0.081-0.315s0.028-0.262,0.083-0.317s0.156-0.083,0.303-0.083
		c0.143,0,0.242,0.027,0.295,0.081S60.954,50.562,60.954,50.719z M60.866,56.627c0,0.02-0.005,0.038-0.015,0.054
		s-0.025,0.029-0.046,0.039s-0.05,0.018-0.088,0.024s-0.085,0.01-0.144,0.01c-0.055,0-0.102-0.003-0.139-0.01
		s-0.067-0.015-0.09-0.024s-0.038-0.023-0.046-0.039s-0.012-0.034-0.012-0.054v-4.419c0-0.02,0.004-0.038,0.012-0.054
		s0.023-0.03,0.046-0.042s0.053-0.02,0.09-0.024s0.084-0.007,0.139-0.007c0.059,0,0.106,0.002,0.144,0.007s0.067,0.013,0.088,0.024
		s0.037,0.025,0.046,0.042s0.015,0.034,0.015,0.054V56.627z"/>
	<path fill="#231F20" d="M65.578,55.973c0,0.039-0.001,0.074-0.005,0.105s-0.008,0.058-0.015,0.081s-0.016,0.043-0.027,0.061
		s-0.038,0.048-0.081,0.09s-0.113,0.096-0.212,0.161s-0.211,0.122-0.334,0.171s-0.257,0.089-0.4,0.12s-0.292,0.046-0.444,0.046
		c-0.306,0-0.577-0.051-0.813-0.154S62.813,56.4,62.653,56.2s-0.281-0.446-0.364-0.737s-0.125-0.627-0.125-1.008
		c0-0.43,0.051-0.797,0.154-1.104s0.243-0.557,0.422-0.752s0.388-0.339,0.627-0.432s0.496-0.139,0.769-0.139
		c0.146,0,0.287,0.014,0.42,0.042s0.256,0.064,0.369,0.11s0.212,0.098,0.3,0.156s0.152,0.108,0.193,0.149s0.068,0.072,0.083,0.093
		s0.026,0.045,0.034,0.071s0.014,0.055,0.017,0.085s0.005,0.067,0.005,0.11c0,0.094-0.014,0.16-0.042,0.198s-0.058,0.056-0.09,0.056
		c-0.045,0-0.102-0.029-0.168-0.088s-0.152-0.123-0.256-0.193s-0.23-0.134-0.378-0.193s-0.325-0.088-0.53-0.088
		c-0.423,0-0.75,0.163-0.979,0.488s-0.344,0.796-0.344,1.411c0,0.309,0.031,0.58,0.093,0.813s0.15,0.426,0.266,0.581
		s0.256,0.27,0.422,0.347s0.353,0.115,0.562,0.115c0.195,0,0.368-0.031,0.518-0.093s0.28-0.13,0.391-0.205s0.203-0.143,0.276-0.205
		s0.128-0.093,0.164-0.093c0.02,0,0.037,0.006,0.051,0.017s0.027,0.029,0.037,0.054s0.017,0.054,0.022,0.088
		S65.578,55.927,65.578,55.973z"/>
	<path fill="#231F20" d="M69.343,55.45c0,0.211-0.039,0.401-0.117,0.569s-0.189,0.31-0.334,0.427s-0.318,0.207-0.52,0.269
		s-0.425,0.093-0.669,0.093c-0.153,0-0.298-0.012-0.435-0.037s-0.26-0.055-0.371-0.093s-0.204-0.077-0.281-0.12
		s-0.133-0.08-0.168-0.112s-0.062-0.073-0.078-0.122s-0.024-0.114-0.024-0.195c0-0.042,0.003-0.08,0.01-0.112
		s0.015-0.06,0.024-0.083s0.023-0.04,0.039-0.051s0.034-0.017,0.054-0.017c0.036,0,0.088,0.023,0.156,0.068s0.154,0.095,0.256,0.149
		s0.225,0.104,0.366,0.149s0.305,0.068,0.491,0.068c0.15,0,0.287-0.016,0.41-0.049s0.231-0.082,0.322-0.146s0.162-0.149,0.212-0.251
		s0.076-0.222,0.076-0.359s-0.033-0.252-0.098-0.347s-0.15-0.177-0.256-0.247s-0.226-0.132-0.361-0.186s-0.273-0.109-0.415-0.166
		s-0.28-0.12-0.415-0.188s-0.255-0.151-0.361-0.249s-0.191-0.215-0.256-0.352s-0.098-0.301-0.098-0.493
		c0-0.153,0.029-0.304,0.088-0.452s0.149-0.281,0.271-0.398s0.278-0.211,0.469-0.283s0.416-0.107,0.676-0.107
		c0.111,0,0.221,0.009,0.33,0.027s0.208,0.042,0.298,0.071s0.167,0.061,0.232,0.095s0.115,0.064,0.149,0.09s0.057,0.048,0.068,0.066
		s0.02,0.037,0.024,0.056s0.009,0.043,0.012,0.071s0.005,0.061,0.005,0.1s-0.002,0.074-0.007,0.105s-0.012,0.058-0.022,0.081
		s-0.022,0.04-0.037,0.051s-0.032,0.017-0.051,0.017c-0.026,0-0.065-0.018-0.117-0.054s-0.121-0.075-0.205-0.117
		s-0.186-0.082-0.303-0.117s-0.252-0.054-0.405-0.054s-0.287,0.018-0.403,0.054s-0.211,0.086-0.286,0.151s-0.131,0.142-0.168,0.229
		s-0.056,0.184-0.056,0.288c0,0.143,0.033,0.264,0.098,0.361s0.151,0.182,0.259,0.254s0.229,0.135,0.366,0.19
		s0.276,0.111,0.417,0.166s0.281,0.116,0.417,0.183s0.259,0.147,0.366,0.242s0.194,0.208,0.259,0.339S69.343,55.265,69.343,55.45z"
		/>
	<path fill="#231F20" d="M72.653,55.113c0-0.176,0.023-0.345,0.068-0.508s0.121-0.321,0.225-0.476s0.243-0.306,0.415-0.454
		s0.384-0.299,0.635-0.452c-0.137-0.189-0.253-0.358-0.349-0.508s-0.174-0.288-0.234-0.415s-0.104-0.248-0.129-0.361
		s-0.039-0.229-0.039-0.347c0-0.189,0.031-0.371,0.093-0.547s0.162-0.332,0.3-0.469s0.319-0.247,0.542-0.33s0.494-0.125,0.813-0.125
		c0.254,0,0.476,0.031,0.667,0.093s0.349,0.148,0.476,0.259s0.223,0.243,0.288,0.398s0.098,0.325,0.098,0.51
		c0,0.189-0.03,0.362-0.09,0.52s-0.159,0.312-0.295,0.461s-0.315,0.301-0.535,0.454s-0.489,0.317-0.808,0.493
		c0.121,0.15,0.252,0.306,0.396,0.469s0.293,0.326,0.449,0.491s0.316,0.327,0.479,0.488s0.326,0.315,0.488,0.461
		c0.078-0.101,0.148-0.215,0.21-0.342s0.116-0.261,0.161-0.403s0.081-0.287,0.105-0.437s0.037-0.301,0.037-0.454v-0.19
		c0-0.029,0.004-0.054,0.012-0.073s0.022-0.036,0.042-0.049s0.048-0.022,0.085-0.027s0.085-0.007,0.144-0.007
		c0.049,0,0.092,0.001,0.129,0.002s0.068,0.007,0.093,0.017s0.043,0.026,0.056,0.049s0.02,0.055,0.02,0.098v0.098
		c0,0.195-0.017,0.387-0.051,0.574s-0.082,0.369-0.142,0.544s-0.134,0.343-0.222,0.503s-0.186,0.308-0.293,0.444
		c0.166,0.133,0.31,0.245,0.432,0.334s0.227,0.162,0.315,0.217s0.16,0.094,0.215,0.117s0.101,0.034,0.137,0.034
		c0.033,0,0.062-0.001,0.09-0.005s0.05-0.001,0.068,0.007s0.032,0.026,0.042,0.054s0.015,0.072,0.015,0.134
		s-0.001,0.112-0.002,0.151s-0.006,0.068-0.012,0.088s-0.018,0.036-0.034,0.049s-0.046,0.024-0.09,0.034s-0.108,0.015-0.193,0.015
		c-0.062,0-0.132-0.012-0.21-0.037s-0.17-0.067-0.276-0.129s-0.229-0.145-0.371-0.249s-0.307-0.238-0.496-0.4
		c-0.13,0.117-0.268,0.226-0.413,0.325s-0.3,0.186-0.466,0.259s-0.343,0.13-0.53,0.171s-0.39,0.061-0.608,0.061
		c-0.202,0-0.39-0.018-0.564-0.054s-0.333-0.088-0.479-0.156s-0.273-0.152-0.386-0.251s-0.207-0.211-0.283-0.334
		s-0.135-0.26-0.176-0.41S72.653,55.283,72.653,55.113z M73.278,55.021c0,0.186,0.03,0.355,0.09,0.508s0.15,0.286,0.269,0.398
		s0.267,0.199,0.444,0.261s0.382,0.093,0.613,0.093c0.156,0,0.305-0.016,0.447-0.049s0.277-0.077,0.408-0.134
		s0.252-0.125,0.366-0.203s0.22-0.163,0.317-0.254c-0.182-0.16-0.362-0.325-0.54-0.496s-0.349-0.343-0.515-0.518
		s-0.326-0.348-0.479-0.52s-0.294-0.342-0.425-0.508c-0.192,0.121-0.352,0.238-0.479,0.354s-0.229,0.232-0.305,0.349
		s-0.131,0.234-0.164,0.352S73.278,54.894,73.278,55.021z M73.859,51.529c0,0.098,0.013,0.197,0.039,0.298s0.066,0.207,0.12,0.317
		s0.121,0.23,0.203,0.359s0.177,0.271,0.288,0.427c0.264-0.15,0.485-0.287,0.664-0.41s0.323-0.244,0.432-0.361
		s0.188-0.233,0.237-0.349s0.073-0.24,0.073-0.374c0-0.104-0.019-0.204-0.056-0.3s-0.097-0.182-0.178-0.256
		s-0.186-0.135-0.312-0.181s-0.28-0.068-0.459-0.068c-0.192,0-0.354,0.025-0.486,0.076s-0.24,0.118-0.325,0.203
		s-0.146,0.181-0.183,0.288S73.859,51.416,73.859,51.529z"/>
	<path fill="#231F20" d="M85.744,54.371c0,0.352-0.045,0.675-0.137,0.972s-0.227,0.553-0.408,0.771s-0.406,0.388-0.676,0.51
		s-0.584,0.183-0.942,0.183c-0.345,0-0.647-0.055-0.906-0.164s-0.475-0.265-0.649-0.469s-0.304-0.45-0.391-0.74
		s-0.129-0.617-0.129-0.981c0-0.352,0.045-0.675,0.134-0.972s0.225-0.553,0.405-0.769s0.406-0.385,0.676-0.505
		s0.586-0.181,0.947-0.181c0.345,0,0.647,0.054,0.906,0.161s0.475,0.263,0.647,0.466s0.303,0.45,0.391,0.74
		S85.744,54.01,85.744,54.371z M85.129,54.425c0-0.25-0.024-0.49-0.073-0.718s-0.13-0.429-0.244-0.603s-0.267-0.312-0.459-0.415
		s-0.431-0.154-0.718-0.154c-0.264,0-0.492,0.047-0.684,0.142s-0.349,0.226-0.471,0.393s-0.212,0.365-0.271,0.593
		s-0.088,0.474-0.088,0.737c0,0.254,0.024,0.496,0.073,0.725s0.13,0.431,0.244,0.603s0.267,0.309,0.459,0.41
		s0.431,0.151,0.718,0.151c0.264,0,0.492-0.047,0.684-0.142s0.349-0.225,0.471-0.391s0.212-0.363,0.271-0.591
		S85.129,54.692,85.129,54.425z"/>
	<path fill="#231F20" d="M90.905,54.352c0,0.377-0.042,0.718-0.125,1.021s-0.205,0.56-0.366,0.771s-0.36,0.375-0.598,0.491
		s-0.509,0.173-0.815,0.173c-0.13,0-0.252-0.014-0.366-0.042s-0.226-0.071-0.334-0.129s-0.218-0.132-0.327-0.22
		s-0.224-0.194-0.344-0.317v2.28c0,0.02-0.005,0.038-0.015,0.054s-0.025,0.03-0.046,0.042s-0.05,0.02-0.088,0.024
		s-0.085,0.007-0.144,0.007c-0.055,0-0.102-0.002-0.139-0.007s-0.067-0.013-0.09-0.024s-0.038-0.025-0.046-0.042
		s-0.012-0.034-0.012-0.054v-6.172c0-0.023,0.004-0.042,0.012-0.059s0.023-0.029,0.044-0.039s0.049-0.017,0.083-0.022
		s0.076-0.007,0.125-0.007s0.089,0.002,0.122,0.007s0.06,0.012,0.083,0.022s0.039,0.023,0.049,0.039s0.015,0.036,0.015,0.059v0.64
		c0.137-0.14,0.267-0.261,0.391-0.364s0.248-0.188,0.371-0.256s0.25-0.119,0.381-0.151s0.269-0.049,0.415-0.049
		c0.319,0,0.591,0.061,0.815,0.183s0.408,0.289,0.549,0.5s0.244,0.458,0.308,0.74S90.905,54.033,90.905,54.352z M90.295,54.444
		c0-0.248-0.02-0.486-0.059-0.715s-0.105-0.434-0.198-0.613s-0.216-0.322-0.371-0.43s-0.349-0.161-0.583-0.161
		c-0.117,0-0.232,0.016-0.344,0.049s-0.227,0.086-0.344,0.161s-0.239,0.172-0.366,0.291s-0.26,0.266-0.4,0.442v1.924
		c0.244,0.296,0.478,0.523,0.701,0.681s0.457,0.237,0.701,0.237c0.225,0,0.417-0.055,0.579-0.164s0.292-0.252,0.393-0.43
		s0.175-0.377,0.222-0.601S90.295,54.669,90.295,54.444z"/>
	<path fill="#231F20" d="M95.788,52.105c0.075,0,0.125,0.019,0.151,0.056s0.039,0.089,0.039,0.154v4.312
		c0,0.02-0.005,0.038-0.015,0.054s-0.025,0.029-0.046,0.039s-0.05,0.018-0.088,0.024s-0.084,0.01-0.139,0.01
		c-0.059,0-0.106-0.003-0.144-0.01s-0.067-0.015-0.088-0.024s-0.037-0.023-0.046-0.039s-0.015-0.034-0.015-0.054v-4.028h-2.441
		v2.671c0,0.335,0.048,0.591,0.144,0.767s0.271,0.264,0.525,0.264c0.078,0,0.149-0.008,0.212-0.024s0.12-0.034,0.168-0.054
		s0.09-0.038,0.125-0.054s0.064-0.024,0.09-0.024c0.016,0,0.031,0.003,0.044,0.01s0.023,0.019,0.032,0.037s0.015,0.041,0.02,0.068
		s0.007,0.062,0.007,0.105c0,0.068-0.006,0.124-0.017,0.166s-0.029,0.076-0.054,0.1s-0.06,0.047-0.107,0.068
		s-0.102,0.039-0.164,0.054s-0.127,0.026-0.195,0.034s-0.135,0.012-0.2,0.012c-0.218,0-0.404-0.029-0.557-0.088
		s-0.278-0.147-0.376-0.266s-0.168-0.27-0.212-0.452s-0.066-0.397-0.066-0.645v-2.749h-0.659c-0.045,0-0.082-0.021-0.107-0.061
		s-0.039-0.102-0.039-0.183c0-0.042,0.003-0.079,0.01-0.11s0.016-0.057,0.029-0.078s0.028-0.037,0.046-0.046
		s0.038-0.015,0.061-0.015h0.659v-1.084c0-0.02,0.004-0.038,0.012-0.054s0.023-0.03,0.046-0.042s0.053-0.02,0.09-0.024
		s0.084-0.007,0.139-0.007c0.059,0,0.106,0.002,0.144,0.007s0.067,0.013,0.088,0.024s0.037,0.025,0.046,0.042
		s0.015,0.034,0.015,0.054v1.084H95.788z M96.066,50.719c0,0.156-0.028,0.262-0.083,0.317s-0.156,0.083-0.303,0.083
		c-0.143,0-0.242-0.027-0.295-0.081s-0.081-0.159-0.081-0.315s0.028-0.262,0.083-0.317s0.156-0.083,0.303-0.083
		c0.143,0,0.242,0.027,0.295,0.081S96.066,50.562,96.066,50.719z"/>
	<path fill="#231F20" d="M100.695,55.973c0,0.039-0.001,0.074-0.005,0.105s-0.008,0.058-0.015,0.081s-0.016,0.043-0.027,0.061
		s-0.038,0.048-0.081,0.09s-0.113,0.096-0.212,0.161s-0.211,0.122-0.334,0.171s-0.257,0.089-0.4,0.12s-0.292,0.046-0.444,0.046
		c-0.306,0-0.577-0.051-0.813-0.154S97.93,56.4,97.771,56.2s-0.281-0.446-0.364-0.737s-0.125-0.627-0.125-1.008
		c0-0.43,0.051-0.797,0.154-1.104s0.243-0.557,0.422-0.752s0.388-0.339,0.627-0.432s0.496-0.139,0.769-0.139
		c0.146,0,0.287,0.014,0.42,0.042s0.256,0.064,0.369,0.11s0.212,0.098,0.3,0.156s0.152,0.108,0.193,0.149s0.068,0.072,0.083,0.093
		s0.026,0.045,0.034,0.071s0.014,0.055,0.017,0.085s0.005,0.067,0.005,0.11c0,0.094-0.014,0.16-0.042,0.198s-0.058,0.056-0.09,0.056
		c-0.045,0-0.102-0.029-0.168-0.088s-0.152-0.123-0.256-0.193s-0.23-0.134-0.378-0.193s-0.325-0.088-0.53-0.088
		c-0.423,0-0.75,0.163-0.979,0.488s-0.344,0.796-0.344,1.411c0,0.309,0.031,0.58,0.093,0.813s0.15,0.426,0.266,0.581
		s0.256,0.27,0.422,0.347s0.353,0.115,0.562,0.115c0.195,0,0.368-0.031,0.518-0.093s0.28-0.13,0.391-0.205s0.203-0.143,0.276-0.205
		s0.128-0.093,0.164-0.093c0.02,0,0.037,0.006,0.051,0.017s0.027,0.029,0.037,0.054s0.017,0.054,0.022,0.088
		S100.695,55.927,100.695,55.973z"/>
	<path fill="#231F20" d="M104.46,55.45c0,0.211-0.039,0.401-0.117,0.569s-0.189,0.31-0.334,0.427s-0.318,0.207-0.52,0.269
		s-0.425,0.093-0.669,0.093c-0.153,0-0.298-0.012-0.435-0.037s-0.26-0.055-0.371-0.093s-0.204-0.077-0.281-0.12
		s-0.133-0.08-0.168-0.112s-0.062-0.073-0.078-0.122s-0.024-0.114-0.024-0.195c0-0.042,0.003-0.08,0.01-0.112
		s0.015-0.06,0.024-0.083s0.023-0.04,0.039-0.051s0.034-0.017,0.054-0.017c0.036,0,0.088,0.023,0.156,0.068s0.154,0.095,0.256,0.149
		s0.225,0.104,0.366,0.149s0.305,0.068,0.491,0.068c0.15,0,0.287-0.016,0.41-0.049s0.231-0.082,0.322-0.146s0.162-0.149,0.212-0.251
		s0.076-0.222,0.076-0.359s-0.033-0.252-0.098-0.347s-0.15-0.177-0.256-0.247s-0.226-0.132-0.361-0.186s-0.273-0.109-0.415-0.166
		s-0.28-0.12-0.415-0.188s-0.255-0.151-0.361-0.249s-0.191-0.215-0.256-0.352s-0.098-0.301-0.098-0.493
		c0-0.153,0.029-0.304,0.088-0.452s0.149-0.281,0.271-0.398s0.278-0.211,0.469-0.283s0.416-0.107,0.676-0.107
		c0.111,0,0.221,0.009,0.33,0.027s0.208,0.042,0.298,0.071s0.167,0.061,0.232,0.095s0.115,0.064,0.149,0.09s0.057,0.048,0.068,0.066
		s0.02,0.037,0.024,0.056s0.009,0.043,0.012,0.071s0.005,0.061,0.005,0.1s-0.002,0.074-0.007,0.105s-0.012,0.058-0.022,0.081
		s-0.022,0.04-0.037,0.051s-0.032,0.017-0.051,0.017c-0.026,0-0.065-0.018-0.117-0.054s-0.121-0.075-0.205-0.117
		s-0.186-0.082-0.303-0.117s-0.252-0.054-0.405-0.054s-0.287,0.018-0.403,0.054s-0.211,0.086-0.286,0.151s-0.131,0.142-0.168,0.229
		s-0.056,0.184-0.056,0.288c0,0.143,0.033,0.264,0.098,0.361s0.151,0.182,0.259,0.254s0.229,0.135,0.366,0.19
		s0.276,0.111,0.417,0.166s0.281,0.116,0.417,0.183s0.259,0.147,0.366,0.242s0.194,0.208,0.259,0.339S104.46,55.265,104.46,55.45z"
		/>
</g>
<g>
	<g>
		<path fill="#231F20" d="M39.531-6.026v32.742h-2.32V-6.026H39.531z"/>
		<path fill="#231F20" d="M60.628,26.716v-3.562h-0.094c-1,1.438-2.027,2.461-3.082,3.07s-2.395,0.914-4.02,0.914
			c-2.312,0-4.227-0.75-5.742-2.25s-2.273-3.625-2.273-6.375V5.153h2.297v13.312c0,2,0.547,3.57,1.641,4.711
			s2.516,1.711,4.266,1.711c1.5,0,2.777-0.344,3.832-1.031s2.113-1.875,3.176-3.562V5.153h2.297v21.562H60.628z"/>
		<path fill="#231F20" d="M71.033,5.153v1.219c2.172-1.094,4.336-1.641,6.492-1.641c3.062,0,5.602,1.055,7.617,3.164
			s3.023,4.766,3.023,7.969c0,3.156-1.039,5.824-3.117,8.004s-4.617,3.27-7.617,3.27c-2.078,0-4.211-0.539-6.398-1.617v12.234
			h-2.297V5.153H71.033z M71.033,8.575v14.695c1.953,1.078,3.938,1.617,5.953,1.617c2.578,0,4.664-0.812,6.258-2.438
			s2.391-3.758,2.391-6.398c0-2.625-0.844-4.793-2.531-6.504s-3.82-2.566-6.398-2.566C74.861,6.981,72.971,7.513,71.033,8.575z"/>
		<path fill="#231F20" d="M102.666,4.731c3.125,0,5.73,1.07,7.816,3.211s3.129,4.812,3.129,8.016c0,3.188-1.043,5.848-3.129,7.98
			s-4.691,3.199-7.816,3.199s-5.738-1.066-7.84-3.199s-3.152-4.793-3.152-7.98c0-3.203,1.051-5.875,3.152-8.016
			S99.541,4.731,102.666,4.731z M102.666,24.888c2.422,0,4.445-0.848,6.07-2.543s2.438-3.824,2.438-6.387
			c0-2.547-0.816-4.68-2.449-6.398s-3.652-2.578-6.059-2.578c-2.438,0-4.473,0.852-6.105,2.555s-2.449,3.844-2.449,6.422
			c0,2.562,0.816,4.691,2.449,6.387S100.229,24.888,102.666,24.888z"/>
	</g>
	<rect x="35.167" y="-7.167" fill="#FFFFFF" width="6.75" height="8.083"/>
	<rect x="67.167" y="31.833" fill="#FFFFFF" width="6.75" height="8.083"/>
</g>
<linearGradient id="SVGID_1_" gradientUnits="userSpaceOnUse" x1="1.918" y1="31.1982" x2="142.8252" y2="31.1982">
	<stop  offset="0" style="stop-color:#FF493D"/>
	<stop  offset="0.056" style="stop-color:#FD513B"/>
	<stop  offset="0.1438" style="stop-color:#F76835"/>
	<stop  offset="0.2525" style="stop-color:#EC8C2B"/>
	<stop  offset="0.3641" style="stop-color:#E0B91F"/>
	<stop  offset="0.526" style="stop-color:#0E9D49"/>
	<stop  offset="0.7645" style="stop-color:#455CFF"/>
	<stop  offset="0.799" style="stop-color:#4B5AFD"/>
	<stop  offset="0.8471" style="stop-color:#5E56F8"/>
	<stop  offset="0.9031" style="stop-color:#7B4EEF"/>
	<stop  offset="0.9648" style="stop-color:#A444E3"/>
	<stop  offset="1" style="stop-color:#BF3DDB"/>
</linearGradient>
<polyline fill="none" stroke="url(#SVGID_1_)" stroke-linecap="round" stroke-linejoin="round" stroke-miterlimit="10" points="
	142.325,34.771 142.227,34.761 141.983,34.652 141.837,34.512 141.617,34.321 141.446,34.181 141.35,34.148 141.154,34.178
	141.031,34.242 140.911,34.377 140.74,34.569 140.594,34.748 140.496,34.866 140.424,34.902 140.203,34.932 140.129,34.905
	139.789,34.431 139.643,34.092 139.569,33.95 139.471,33.87 139.374,33.777 139.277,33.647 139.228,33.637 139.082,33.863
	138.959,34.002 138.886,34.12 138.74,34.681 138.544,35.147 138.448,35.498 138.374,35.753 138.325,35.832 138.203,35.8
	138.13,35.813 138.058,35.834 138.009,35.787 137.667,34.453 137.472,33.292 137.398,32.91 137.278,32.554 137.18,32.22
	137.105,31.976 137.058,31.912 137.009,31.955 136.886,32.363 136.789,32.64 136.715,32.871 136.521,34.527 136.447,35.017
	136.351,35.507 136.253,36.417 136.179,37.116 136.13,37.362 136.106,37.412 136.032,37.431 135.984,37.506 135.911,37.798
	135.862,37.959 135.838,37.975 135.789,37.839 135.716,37.322 135.643,36.815 135.569,36.496 135.497,36.063 135.423,35.253
	135.326,34.04 135.204,33.101 135.057,31.518 135.008,31.063 134.959,30.838 134.886,30.778 134.839,30.684 134.765,30.306
	134.716,30.096 134.691,30.083 134.667,30.149 134.544,31.264 134.497,31.583 134.448,31.702 134.398,31.812 134.351,32.164
	134.228,34.163 134.18,34.808 134.13,35.125 134.082,35.271 134.034,35.538 133.912,37.316 133.862,37.923 133.838,38.072
	133.814,38.111 133.716,37.728 133.692,37.703 133.668,37.765 133.594,38.34 133.545,38.66 133.522,38.668 133.497,38.545
	133.399,37.16 133.351,36.596 133.326,36.481 133.301,36.474 133.254,36.618 133.229,36.65 133.204,36.586 133.18,36.384
	133.082,34.489 133.033,33.633 133.009,33.413 132.985,33.349 132.911,33.664 132.887,33.72 132.863,33.648 132.837,33.427
	132.766,32.089 132.715,31.294 132.692,31.125 132.668,31.147 132.595,32.036 132.545,32.608 132.521,32.686 132.399,31.37
	132.375,31.242 132.351,31.311 132.325,31.589 132.253,33.213 132.204,34.126 132.18,34.314 132.058,33.232 132.034,33.153
	132.009,33.291 131.912,35.48 131.863,36.365 131.839,36.461 131.716,34.569 131.693,34.376 131.668,34.433 131.595,35.833
	131.546,36.809 131.521,36.968 131.497,36.831 131.425,35.01 131.375,33.75 131.351,33.468 131.326,33.498 131.253,34.973
	131.205,35.884 131.18,35.944 131.156,35.666 131.082,33.452 131.034,32.167 131.009,31.977 130.984,32.155 130.912,34.217
	130.863,35.462 130.838,35.641 130.814,35.46 130.716,32.807 130.692,32.415 130.668,32.396 130.643,32.784 130.57,35.604
	130.522,37.286 130.497,37.612 130.472,37.521 130.376,34.81 130.351,34.388 130.326,34.369 130.301,34.791 130.228,37.808
	130.18,39.458 130.156,39.652 130.131,39.337 130.058,36.283 130.009,34.417 129.984,34.091 129.864,37.49 129.838,37.869
	129.814,37.708 129.789,36.965 129.717,32.396 129.668,29.64 129.643,28.978 129.62,28.897 129.522,31.816 129.497,32.218
	129.473,32.089 129.448,31.375 129.375,26.862 129.327,24.184 129.301,23.629 129.278,23.737 129.253,24.48 129.18,28.755
	129.131,30.874 129.107,31.149 129.083,30.867 129.033,29.203 128.985,27.789 128.96,27.845 128.937,28.644 128.815,40.762
	128.766,44.81 128.741,45.839 128.717,46.226 128.643,45.568 128.618,45.649 128.571,47.513 128.521,51.72 128.515,57.872
	128.466,58.751 128.441,59.253 128.417,59.167 128.368,59.061 128.295,51.165 128.083,30.723 128.009,17.193 127.961,11.105
	127.912,7.183 127.863,4.81 127.814,3.537 127.79,3.239 127.766,3.144 127.741,3.236 127.693,3.939 127.62,6.216 127.522,11.377
	127.326,26.63 127.205,35.955 127.108,41.538 127.035,44.534 126.96,46.648 126.887,47.989 126.838,48.517 126.791,48.781
	126.766,48.823 126.718,48.735 126.644,48.241 126.546,47.021 126.132,38.724 125.936,34.981 125.766,32.243 125.62,30.323
	125.498,29.042 125.399,28.247 125.327,27.804 125.253,27.499 125.206,27.381 125.157,27.335 125.107,27.367 125.059,27.475
	124.985,27.786 124.887,28.489 124.791,29.509 124.278,38.109 124.156,39.996 124.058,41.137 123.985,41.723 123.937,41.966
	123.888,42.085 123.864,42.1 123.814,42.031 123.742,41.689 123.644,40.812 123.522,39.114 123.328,35.472 123.108,31.112
	122.985,29.097 122.888,27.889 122.815,27.28 122.766,27.029 122.718,26.916 122.694,26.911 122.644,27.005 122.596,27.239
	122.522,27.845 122.425,29.088 122.107,35.029 121.962,37.677 121.839,39.437 121.742,40.467 121.669,40.977 121.62,41.18
	121.571,41.267 121.547,41.263 121.498,41.161 121.425,40.763 121.352,40.081 120.937,32.993 120.814,31.081 120.718,29.925
	120.645,29.296 120.571,28.872 120.522,28.701 120.474,28.619 120.424,28.63 120.377,28.732 120.303,29.066 120.231,29.623
	120.132,30.707 119.84,35.477 119.718,37.348 119.62,38.458 119.547,39.008 119.498,39.241 119.45,39.371 119.4,39.405
	119.352,39.359 119.279,39.149 119.181,38.652 119.06,37.715 118.938,36.425 118.742,33.772 118.596,31.761 118.498,30.723
	118.425,30.208 118.377,30.01 118.327,29.93 118.279,29.967 118.206,30.218 118.107,30.838 117.499,36.435 117.377,37.466
	117.304,37.924 117.254,38.128 117.206,38.235 117.156,38.236 117.109,38.129 117.035,37.771 116.718,34.738 116.596,33.686
	116.498,33.061 116.4,32.594 116.279,32.146 116.182,31.864 116.108,31.722 116.06,31.678 116.01,31.691 115.962,31.77
	115.889,32.023 115.792,32.625 115.596,34.408 115.475,35.476 115.402,35.954 115.327,36.276 115.279,36.404 115.229,36.474
	115.182,36.493 115.109,36.451 114.987,36.29 114.839,36.022 114.743,35.754 114.646,35.356 114.377,33.662 114.279,33.092
	114.207,32.792 114.157,32.668 114.108,32.608 114.06,32.607 114.011,32.657 113.913,32.875 113.523,34.102 113.28,35.029
	113.158,35.482 113.084,35.681 113.011,35.795 112.963,35.817 112.889,35.771 112.817,35.644 112.646,35.163 112.426,34.508
	112.182,33.877 112.061,33.617 111.962,33.479 111.89,33.435 111.816,33.452 111.744,33.524 111.353,34.398 111.182,34.756
	111.036,34.994 110.913,35.124 110.816,35.162 110.719,35.134 110.597,35.011 110.328,34.545 110.133,34.213 109.986,34.027
	109.865,33.932 109.742,33.9 109.621,33.938 109.11,34.557 108.938,34.734 108.792,34.821 108.67,34.84 108.524,34.794
	108.085,34.394 107.89,34.231 107.744,34.16 107.597,34.144 107.427,34.192 107.109,34.408 106.865,34.576 106.67,34.653
	106.5,34.66 105.89,34.384 105.671,34.298 105.476,34.276 104.768,34.505 104.523,34.56 104.305,34.557 103.939,34.463
	103.597,34.37 103.33,34.348 102.792,34.439 102.451,34.5 101.548,34.408 100.379,34.465 99.426,34.417 98.306,34.447
	97.476,34.432 46.793,34.347 45.521,34.346 44.186,34.339 42.469,34.361 42.024,34.363 41.643,34.356 40.689,34.311 40.371,34.298
	40.118,34.295 39.863,34.301 39.608,34.317 38.719,34.431 38.464,34.458 38.274,34.47 38.084,34.47 37.893,34.458 37.701,34.431
	37.447,34.374 36.875,34.192 36.622,34.116 36.43,34.076 36.303,34.061 36.175,34.056 36.05,34.064 35.922,34.086 35.731,34.144
	35.477,34.268 35.031,34.567 34.714,34.782 34.522,34.879 34.396,34.923 34.269,34.946 34.205,34.948 34.078,34.933 33.951,34.89
	33.76,34.775 33.505,34.531 33.188,34.123 32.807,33.606 32.616,33.397 32.488,33.295 32.361,33.23 32.298,33.214 32.234,33.208
	32.17,33.215 32.106,33.233 31.979,33.31 31.79,33.517 31.535,33.955 31.217,34.682 30.835,35.592 30.646,35.957 30.518,36.136
	30.39,36.251 30.326,36.28 30.263,36.292 30.2,36.283 30.137,36.253 30.009,36.129 29.818,35.79 29.564,35.075 29.183,33.646
	28.864,32.44 28.674,31.861 28.547,31.576 28.42,31.393 28.355,31.344 28.292,31.324 28.229,31.335 28.165,31.378 28.038,31.559
	27.847,32.065 27.656,32.824 27.211,35.227 26.894,36.979 26.704,37.816 26.576,38.227 26.449,38.494 26.386,38.567 26.322,38.598
	26.258,38.586 26.194,38.53 26.067,38.288 25.876,37.604 25.686,36.579 25.241,33.366 24.922,31.05 24.732,29.95 24.605,29.411
	24.477,29.061 24.414,28.962 24.351,28.917 24.288,28.927 24.224,28.992 24.097,29.289 23.906,30.129 23.715,31.387 23.27,35.294
	22.952,38.076 22.762,39.388 22.635,40.031 22.507,40.451 22.443,40.571 22.38,40.628 22.315,40.623 22.252,40.553 22.126,40.225
	21.998,39.655 21.808,38.396 21.172,32.283 20.917,30.005 20.727,28.726 20.6,28.146 20.473,27.817 20.409,27.75 20.346,27.75
	20.281,27.817 20.153,28.146 20.028,28.726 19.837,30.005 19.2,36.14 18.947,38.396 18.756,39.655 18.628,40.225 18.503,40.553
	18.438,40.623 18.375,40.628 18.312,40.571 18.248,40.451 18.12,40.031 17.93,38.994 17.229,32.957 16.976,30.927 16.786,29.798
	16.658,29.289 16.531,28.992 16.467,28.927 16.404,28.917 16.341,28.962 16.276,29.061 16.15,29.411 15.958,30.281 15.259,35.294
	15.004,36.954 14.813,37.873 14.687,38.288 14.561,38.53 14.496,38.586 14.433,38.598 14.369,38.567 14.243,38.379 14.051,37.816
	13.289,33.781 13.035,32.546 12.843,31.867 12.716,31.559 12.589,31.378 12.525,31.335 12.462,31.324 12.399,31.344 12.271,31.471
	12.082,31.861 11.318,34.631 11.063,35.466 10.873,35.923 10.745,36.129 10.618,36.253 10.556,36.283 10.492,36.292 10.428,36.28
	10.3,36.202 10.109,35.957 9.347,34.229 9.092,33.715 8.902,33.436 8.775,33.31 8.648,33.233 8.584,33.215 8.52,33.208
	8.456,33.214 8.33,33.257 8.139,33.397 7.439,34.295 7.185,34.601 6.994,34.775 6.867,34.858 6.741,34.915 6.612,34.943
	6.549,34.948 6.486,34.946 6.358,34.923 6.231,34.879 5.405,34.345 5.151,34.199 4.96,34.121 4.833,34.086 4.705,34.064
	4.58,34.056 4.452,34.061 4.324,34.076 4.133,34.116 3.625,34.277 3.308,34.374 3.116,34.418 2.926,34.45 2.735,34.467
	2.608,34.471 2.418,34.467 "/>
</svg>
